<svg xmlns="http://www.w3.org/2000/svg" viewBox="0 0 32 32" width="32" height="32">
  <!-- Background circle for better visibility -->
  <circle cx="16" cy="16" r="16" fill="#1a1a1a"/>
  
  <!-- Bold Red Sox style B -->
  <path d="M8 6h8c2.5 0 4.5 0.8 6 2.2s2.2 3.3 2.2 5.8c0 1.5-0.4 2.8-1.2 3.8s-1.8 1.6-3 2c1.8 0.4 3.2 1.2 4 2.4s1.2 2.8 1.2 4.8c0 2.8-1 5-3 6.5s-4.5 2.5-8 2.5H8V6z M12 10v6h4c1.2 0 2.2-0.3 2.8-1s1-1.5 1-2.5c0-1-0.3-1.8-1-2.4s-1.6-0.9-2.8-0.9H12z M12 20v6h5c1.5 0 2.8-0.4 3.5-1.2s1.2-1.8 1.2-3.2c0-1.4-0.4-2.5-1.2-3.3s-1.8-1.3-3.5-1.3H12z" fill="#ffffff" stroke="#ffffff" stroke-width="0.5"/>
</svg>